# This file uses centimeters as units for non-parametric coordinates.

mtllib CEJAS.mtl
g default
v 5.599141 215.184183 24.665307
v 21.189684 217.619150 18.111885
v 5.599141 216.175394 24.665307
v 21.189684 218.326689 18.111885
v 5.383209 216.175394 24.133954
v 21.120119 218.326689 17.945472
v 5.383209 215.184183 24.133954
v 21.120119 217.619150 17.945472
v 9.486636 219.320080 23.493800
v 9.160686 219.395180 22.695253
v 8.167978 215.982848 23.772986
v 8.493909 215.907749 24.571513
v 19.555475 220.371222 20.332926
v 19.229544 220.371222 19.530856
v 18.991296 216.903356 19.627683
v 19.317227 216.903356 20.580972
v 14.495087 220.497584 23.284070
v 14.169156 220.497584 22.482000
v 13.551712 216.108085 22.732914
v 13.877662 216.108085 23.534982
v -5.599141 215.184183 24.665307
v -21.189684 217.619150 18.111885
v -5.599141 216.175394 24.665307
v -21.189684 218.326689 18.111885
v -5.383209 216.175394 24.133954
v -21.120119 218.326689 17.945472
v -5.383209 215.184183 24.133954
v -21.120119 217.619150 17.945472
v -9.486636 219.320080 23.493800
v -9.160686 219.395180 22.695253
v -8.167978 215.982848 23.772986
v -8.493909 215.907749 24.571513
v -19.555475 220.371222 20.332926
v -19.229544 220.371222 19.530856
v -18.991296 216.903356 19.627683
v -19.317227 216.903356 20.580972
v -14.495087 220.497584 23.284070
v -14.169156 220.497584 22.482000
v -13.551712 216.108085 22.732914
v -13.877662 216.108085 23.534982
vt 0.587323 0.030757
vt 0.582273 0.329213
vt 0.423740 0.360037
vt 0.641280 -0.000000
vt 0.526084 0.252133
vt 0.586746 0.035733
vt 0.657081 0.140069
vt 0.606996 0.036359
vt 0.431152 0.958233
vt 0.867304 0.724057
vt 0.017063 0.534754
vt 0.899000 0.718070
vt 0.349822 0.571423
vt 0.370391 0.412091
vt 0.683884 0.383155
vt 0.542781 0.564515
vt 1.000000 0.604515
vt 0.155657 0.549287
vt 0.803581 0.629285
vt 0.477817 0.828031
vt 0.647685 0.395893
vt 0.761875 0.643267
vt 0.287989 0.237474
vt 0.080931 0.417811
vt 0.926551 0.350219
vt 0.962897 0.602923
vt 0.964232 0.343143
vt 0.326290 0.825155
vt 0.863211 0.729427
vt 0.000000 0.509148
vt 0.893377 0.712702
vt 0.400593 0.954637
vt 0.621527 0.155514
vt 0.480834 0.097100
vt 0.819966 0.141403
vt 0.849587 0.122157
vt 0.638638 0.024243
vt 0.562633 0.000000
vt 0.625196 0.206686
vt 0.582271 0.202720
vt 0.625196 0.206686
vt 0.582273 0.329213
vt 0.423740 0.360037
vt 0.582271 0.202720
vt 0.641280 -0.000000
vt 0.849587 0.122157
vt 0.819966 0.141403
vt 0.638638 0.024243
vt 0.586746 0.035733
vt 0.526084 0.252133
vt 0.480834 0.097100
vt 0.562633 0.000000
vt 0.606996 0.036359
vt 0.657081 0.140069
vt 0.621527 0.155514
vt 0.587323 0.030757
vt 0.863211 0.729427
vt 0.867304 0.724057
vt 0.893377 0.712702
vt 0.899000 0.718070
vt 0.964232 0.343143
vt 0.926551 0.350219
vt 0.370391 0.412091
vt 0.287989 0.237474
vt 0.683884 0.383155
vt 0.647685 0.395893
vt 0.542781 0.564515
vt 0.349822 0.571423
vt 1.000000 0.604515
vt 0.962897 0.602923
vt 0.080931 0.417811
vt 0.155657 0.549287
vt 0.017063 0.534754
vt 0.000000 0.509148
vt 0.761875 0.643267
vt 0.803581 0.629285
vt 0.326290 0.825155
vt 0.477817 0.828031
vt 0.431152 0.958233
vt 0.400593 0.954637
vn -0.409840 -0.475944 0.778144
vn 0.173258 -0.660863 0.730234
vn -0.192149 0.656437 0.729500
vn -0.599980 0.423121 0.678964
vn -0.437067 0.603123 -0.667244
vn -0.926235 0.329732 -0.182659
vn 0.007203 -0.729932 -0.683482
vn -0.511265 -0.723468 -0.463899
vn 0.895454 -0.441486 0.057040
vn 0.329364 -0.568727 -0.753704
vn 0.489199 0.418424 -0.765249
vn 0.952439 0.304428 -0.013550
vn 0.134711 0.723546 0.677004
vn -0.301261 0.695089 -0.652758
vn -0.158335 -0.726944 -0.668194
vn 0.275192 -0.695564 0.663672
vn 0.669349 0.609714 0.424523
vn -0.188121 0.673010 -0.715310
vn -0.277116 -0.705212 -0.652597
vn 0.573183 -0.677040 0.461604
vn 0.409840 -0.475944 0.778144
vn 0.599980 0.423121 0.678964
vn 0.192149 0.656437 0.729500
vn -0.173258 -0.660863 0.730234
vn 0.926235 0.329732 -0.182659
vn 0.437067 0.603123 -0.667244
vn 0.511265 -0.723468 -0.463899
vn -0.007203 -0.729932 -0.683482
vn -0.895454 -0.441486 0.057040
vn -0.952439 0.304428 -0.013550
vn -0.489199 0.418424 -0.765249
vn -0.329364 -0.568727 -0.753704
vn 0.301261 0.695089 -0.652758
vn -0.134711 0.723546 0.677004
vn 0.158335 -0.726944 -0.668194
vn -0.275192 -0.695564 0.663672
vn -0.669349 0.609714 0.424523
vn 0.188121 0.673010 -0.715310
vn 0.277116 -0.705212 -0.652597
vn -0.573183 -0.677040 0.461604
s 1
g pasted__CejaderechaFBXASC032groupFBXASC032CejaIzquierda3 group6
usemtl pasted__CejaderechaFBXASC032groupFBXASC032CejaIzquierdaSG
f 1/39/1 12/2/2 9/3/3 3/40/4
f 3/4/4 9/36/3 10/35/5 5/37/6
f 5/6/6 10/5/5 11/34/7 7/38/8
f 7/8/8 11/7/7 12/33/2 1/1/1
f 2/29/9 8/10/10 6/31/11 4/12/12
f 7/8/8 1/1/1 3/4/4 5/37/6
f 9/36/3 17/27/13 18/25/14 10/35/5
f 11/34/7 10/5/5 18/14/14 19/23/15
f 12/33/2 11/7/7 19/15/15 20/21/16
f 9/3/3 12/2/2 20/16/16 17/13/13
f 13/17/17 4/12/12 6/31/11 14/26/18
f 15/24/19 14/18/18 6/11/11 8/30/10
f 16/22/20 15/19/19 8/10/10 2/29/9
f 13/28/17 16/20/20 2/9/9 4/32/12
f 17/27/13 13/17/17 14/26/18 18/25/14
f 19/23/15 18/14/14 14/18/18 15/24/19
f 20/21/16 19/15/15 15/19/19 16/22/20
f 17/13/13 20/16/16 16/20/20 13/28/17
s 3
f 21/41/21 23/44/22 29/43/23 32/42/24
f 23/45/22 25/48/25 30/47/26 29/46/23
f 25/49/25 27/52/27 31/51/28 30/50/26
f 27/53/27 21/56/21 32/55/24 31/54/28
f 22/57/29 24/60/30 26/59/31 28/58/32
f 27/53/27 25/48/25 23/45/22 21/56/21
f 29/46/23 30/47/26 38/62/33 37/61/34
f 31/51/28 39/64/35 38/63/33 30/50/26
f 32/55/24 40/66/36 39/65/35 31/54/28
f 29/43/23 37/68/34 40/67/36 32/42/24
f 33/69/37 34/70/38 26/59/31 24/60/30
f 35/71/39 28/74/32 26/73/31 34/72/38
f 36/75/40 22/57/29 28/58/32 35/76/39
f 33/77/37 24/80/30 22/79/29 36/78/40
f 37/61/34 38/62/33 34/70/38 33/69/37
f 39/64/35 35/71/39 34/72/38 38/63/33
f 40/66/36 36/75/40 35/76/39 39/65/35
f 37/68/34 33/77/37 36/78/40 40/67/36
